<svg xmlns="http://www.w3.org/2000/svg" width="323" height="105" viewBox="0 0 323 105">
<defs id="SvgjsDefs1001"></defs><g id="SvgjsG1007" featurekey="symbolContainer" transform="matrix(1,0,0,1,0,0)" fill="#7c0752">    <path xmlns="http://www.w3.org/2000/svg" fill-rule="nonzero" d="             M0,0             H103             V105             H0,0             z             M4,4             v97             h95             v-97             z     "></path></g><g id="SvgjsG1008" featurekey="monogramFeature-0" transform="matrix(1.4786649719977532,0,0,1.4786649719977532,14.604564324748223,-11.640053660397022)" fill="#7c0752"><path d="M48.96 65.1 q-2.4 2.16 -5.61 3.39 t-6.27 1.23 q-4.2 0 -7.65 -2.37 t-5.73 -6.69 q-6.24 -0.12 -11.28 -3 t-7.92 -7.8 t-2.88 -10.92 q0 -6.06 2.97 -11.01 t8.1 -7.77 t11.49 -2.82 q6.3 0 11.46 2.82 t8.13 7.77 t2.97 11.01 q0 6.96 -3.87 12.45 t-10.29 7.83 q2.7 3 5.58 3 q1.5 0 3.42 -0.87 t3.96 -2.43 z M13.11 45.72 q1.77 3.06 4.74 4.86 t6.45 1.8 t6.39 -1.77 t4.62 -4.86 t1.71 -6.81 q0 -3.66 -1.71 -6.72 t-4.62 -4.83 t-6.39 -1.77 t-6.48 1.77 t-4.74 4.83 t-1.74 6.72 q0 3.72 1.77 6.78 z"></path></g><g id="SvgjsG1009" featurekey="nameFeature-0" transform="matrix(1.1410314010845684,0,0,1.1410314010845684,120.58101682479843,16.178915076505916)" fill="#7c0752"><path d="M10.76 25.560000000000002 c0 5.08 2.12 9.28 8.52 9.28 s8.52 -4.2 8.52 -9.28 s-2.12 -9.28 -8.52 -9.28 s-8.52 4.2 -8.52 9.28 z M38.28 34.4 l0 5.6 l-6.28 0 c-3 0 -5.4 0.16 -7.44 0.36 s-3.72 0.4 -5.28 0.4 c-12.08 0 -17.16 -6.48 -17.16 -15.2 s5.08 -15.2 17.16 -15.2 s17.16 7.16 17.16 14.04 c0 4.84 -2.08 8.84 -5.68 11.2 l0.08 0.08 c1.76 -0.76 3.44 -1.28 5.8 -1.28 l1.64 0 z M73.4 11.120000000000001 l0 15.68 c0 10 -5.56 13.96 -15.6 13.96 c-10.08 0 -15.64 -3.64 -15.64 -12.84 l0 -16.8 l8.4 0 l0 16.2 c0 5.2 2.6 7.52 7.24 7.52 c5.52 0 7.2 -3.48 7.2 -8.56 l0 -15.16 l8.4 0 z M87.80000000000001 25.560000000000002 c0 5.08 2.12 9.28 8.52 9.28 s8.52 -4.2 8.52 -9.28 s-2.12 -9.28 -8.52 -9.28 s-8.52 4.2 -8.52 9.28 z M79.16000000000001 25.560000000000002 c0 -8.72 5.08 -15.2 17.16 -15.2 s17.16 6.48 17.16 15.2 s-5.08 15.2 -17.16 15.2 s-17.16 -6.48 -17.16 -15.2 z M127.72000000000001 40 l0 -22.96 l-11.12 0 l0 -5.92 l30.64 0 l0 5.92 l-11.12 0 l0 22.96 l-8.4 0 z M152.24 40 l0 -28.88 l24.8 0 l0 5.92 l-16.4 0 l0 5.36 l15.52 0 l0 5.92 l-15.52 0 l0 5.76 l16.76 0 l0 5.92 l-25.16 0 z"></path></g><g id="SvgjsG1010" featurekey="sloganFeature-0" transform="matrix(1,0,0,1,123,78)" fill="#7c0752"><path d=""></path></g>
</svg>
