<svg xmlns="http://www.w3.org/2000/svg" width="103" height="105" viewBox="0 0 103 105">
<g id="SvgjsG1007" featurekey="symbolContainer" transform="matrix(1,0,0,1,0,0)" fill="#7c0752">    <path xmlns="http://www.w3.org/2000/svg" fill-rule="nonzero" d="             M0,0             H103             V105             H0,0             z             M4,4             v97             h95             v-97             z     "/></g><g id="SvgjsG1008" featurekey="monogramFeature-0" transform="matrix(1.4786649719977532,0,0,1.4786649719977532,14.604564324748223,-11.640053660397022)" fill="#7c0752"><path d="M48.96 65.1 q-2.4 2.16 -5.61 3.39 t-6.27 1.23 q-4.2 0 -7.65 -2.37 t-5.73 -6.69 q-6.24 -0.12 -11.28 -3 t-7.92 -7.8 t-2.88 -10.92 q0 -6.06 2.97 -11.01 t8.1 -7.77 t11.49 -2.82 q6.3 0 11.46 2.82 t8.13 7.77 t2.97 11.01 q0 6.96 -3.87 12.45 t-10.29 7.83 q2.7 3 5.58 3 q1.5 0 3.42 -0.87 t3.96 -2.43 z M13.11 45.72 q1.77 3.06 4.74 4.86 t6.45 1.8 t6.39 -1.77 t4.62 -4.86 t1.71 -6.81 q0 -3.66 -1.71 -6.72 t-4.62 -4.83 t-6.39 -1.77 t-6.48 1.77 t-4.74 4.83 t-1.74 6.72 q0 3.72 1.77 6.78 z"/></g>
</svg>
